<svg width="16" height="16" viewBox="0 0 16 16" fill="none" xmlns="http://www.w3.org/2000/svg">
<path d="M3.34856 2.0372C3.39967 2.79535 3.52745 3.53646 3.7319 4.2435L2.70967 5.26572C2.36042 4.2435 2.13893 3.16164 2.06227 2.0372H3.34856V2.0372ZM11.7478 12.2765C12.4719 12.4809 13.213 12.6087 13.9626 12.6598V13.9291C12.8382 13.8524 11.7563 13.6309 10.7256 13.2902L11.7478 12.2765V12.2765ZM4.16634 0.333496H1.18486C0.716341 0.333496 0.333008 0.716829 0.333008 1.18535C0.333008 9.18424 6.8156 15.6668 14.8145 15.6668C15.283 15.6668 15.6663 15.2835 15.6663 14.815V11.842C15.6663 11.3735 15.283 10.9902 14.8145 10.9902C13.7582 10.9902 12.7275 10.8198 11.7734 10.5046C11.6882 10.4705 11.5945 10.462 11.5093 10.462C11.2878 10.462 11.0749 10.5472 10.9045 10.7091L9.03042 12.5831C6.61967 11.3479 4.64338 9.38016 3.41671 6.96942L5.29079 5.09535C5.5293 4.85683 5.59745 4.52461 5.50375 4.22646C5.18856 3.27239 5.01819 2.25016 5.01819 1.18535C5.01819 0.716829 4.63486 0.333496 4.16634 0.333496Z" fill="white"/>
</svg>
