<svg width="34" height="34" viewBox="0 0 34 34" fill="none" xmlns="http://www.w3.org/2000/svg">
<path d="M8.9605 18.1084H12.6874V33.4516C12.6874 33.7545 12.9329 34 13.2358 34H19.555C19.8579 34 20.1034 33.7545 20.1034 33.4516V18.1807H24.3878C24.6664 18.1807 24.9008 17.9716 24.9326 17.6949L25.5833 12.0463C25.6012 11.8909 25.5519 11.7353 25.448 11.6187C25.3439 11.502 25.1949 11.4352 25.0387 11.4352H20.1036V7.89436C20.1036 6.82698 20.6783 6.28572 21.8119 6.28572C21.9735 6.28572 25.0387 6.28572 25.0387 6.28572C25.3416 6.28572 25.587 6.04015 25.587 5.73734V0.552445C25.587 0.249516 25.3416 0.00405806 25.0387 0.00405806H20.5918C20.5604 0.00252258 20.4908 0 20.3881 0C19.6165 0 16.9346 0.151464 14.8161 2.10043C12.4687 4.2602 12.795 6.84617 12.873 7.29454V11.4351H8.9605C8.65757 11.4351 8.41211 11.6805 8.41211 11.9835V17.5599C8.41211 17.8628 8.65757 18.1084 8.9605 18.1084Z" fill="white"/>
</svg>
