<svg width="100" height="23" viewBox="0 0 100 23" fill="none" xmlns="http://www.w3.org/2000/svg">
<path d="M17.4507 4.80957L17.3232 4.86621C16.5869 4.18652 15.6995 3.64372 14.6611 3.23779C13.6322 2.83187 12.4993 2.62891 11.2627 2.62891C10.0732 2.62891 8.98291 2.81771 7.9917 3.19531C7.00049 3.56348 6.14616 4.10156 5.42871 4.80957C4.7207 5.51758 4.16846 6.38607 3.77197 7.41504C3.37549 8.44401 3.17725 9.61458 3.17725 10.9268C3.17725 12.3711 3.36605 13.721 3.74365 14.9766C4.12126 16.2227 4.68294 17.3035 5.42871 18.2192C6.17448 19.1349 7.10433 19.8571 8.21826 20.3857C9.34163 20.9049 10.6491 21.1646 12.1406 21.1646C12.6787 21.1646 13.2168 21.1079 13.7549 20.9946C14.293 20.8813 14.8075 20.7161 15.2983 20.499C15.7987 20.2725 16.266 20.0034 16.7002 19.6919C17.1439 19.3709 17.5451 19.0075 17.9038 18.6016L18.0596 18.7007L16.9268 21.5894C16.2188 21.8631 15.4352 22.0708 14.5762 22.2124C13.7266 22.3634 12.8675 22.439 11.999 22.439C10.2526 22.439 8.65251 22.1888 7.19873 21.6885C5.75439 21.1787 4.5083 20.4613 3.46045 19.5361C2.42204 18.611 1.61019 17.5018 1.0249 16.2085C0.449056 14.9058 0.161133 13.4614 0.161133 11.8755C0.161133 10.9787 0.274414 10.096 0.500977 9.22754C0.736979 8.35905 1.07682 7.53304 1.52051 6.74951C1.96419 5.96598 2.51172 5.24854 3.16309 4.59717C3.81445 3.93636 4.5555 3.36523 5.38623 2.88379C6.2264 2.40234 7.14681 2.02946 8.14746 1.76514C9.15755 1.49137 10.2479 1.35449 11.4185 1.35449C13.2404 1.35449 14.9302 1.63298 16.4878 2.18994L17.4507 4.80957ZM19.6738 17.8228C19.6738 17.077 19.8249 16.4303 20.127 15.8828C20.4385 15.3353 20.8491 14.868 21.3589 14.481C21.8687 14.0939 22.4492 13.7824 23.1006 13.5464C23.752 13.3009 24.4269 13.1121 25.1255 12.98C25.8241 12.8384 26.5132 12.744 27.1929 12.6968C27.8726 12.6401 28.4956 12.6071 29.062 12.5977V11.8755C29.062 11.2524 28.9818 10.7144 28.8213 10.2612C28.6608 9.80811 28.4342 9.43522 28.1416 9.14258C27.849 8.84049 27.495 8.61865 27.0796 8.47705C26.6737 8.32601 26.2253 8.25049 25.7344 8.25049C25.3945 8.25049 25.0594 8.27881 24.729 8.33545C24.3986 8.39209 24.054 8.48649 23.6953 8.61865C23.346 8.75081 22.9731 8.93018 22.5767 9.15674C22.1896 9.3833 21.7695 9.67122 21.3164 10.0205L21.1748 9.93555L22.1377 7.93896C22.4492 7.79736 22.756 7.68408 23.0581 7.59912C23.3602 7.50472 23.667 7.4292 23.9785 7.37256C24.29 7.31592 24.6063 7.27816 24.9272 7.25928C25.2576 7.23096 25.6022 7.2168 25.9609 7.2168C26.9521 7.2168 27.797 7.33952 28.4956 7.58496C29.2036 7.82096 29.7795 8.15137 30.2231 8.57617C30.6763 8.99154 31.0067 9.48242 31.2144 10.0488C31.422 10.6058 31.5259 11.2052 31.5259 11.8472V16.4634C31.5259 17.2658 31.5353 17.9691 31.5542 18.5732C31.5825 19.168 31.6108 19.6825 31.6392 20.1167C31.6769 20.5509 31.7194 20.9144 31.7666 21.207C31.8232 21.4997 31.8799 21.7451 31.9365 21.9434V22H28.8071V21.9434C28.8543 21.7923 28.8874 21.6224 28.9062 21.4336C28.9346 21.2448 28.9582 21.0182 28.9771 20.7539C28.7788 20.9238 28.5428 21.0985 28.269 21.2778C28.0047 21.4572 27.6979 21.6224 27.3486 21.7734C27.0088 21.915 26.6265 22.0283 26.2017 22.1133C25.7863 22.2077 25.3285 22.2549 24.8281 22.2549C23.1855 22.2549 21.9159 21.8726 21.019 21.1079C20.1222 20.3338 19.6738 19.2388 19.6738 17.8228ZM29.062 13.7021C28.203 13.7116 27.377 13.7635 26.584 13.8579C25.791 13.9429 25.0877 14.127 24.4741 14.4102C23.87 14.6934 23.3838 15.0993 23.0156 15.6279C22.6569 16.1471 22.4775 16.841 22.4775 17.7095C22.4775 18.8234 22.756 19.673 23.313 20.2583C23.87 20.8436 24.6393 21.1362 25.6211 21.1362C26.0742 21.1362 26.4849 21.0749 26.853 20.9521C27.2306 20.82 27.561 20.6595 27.8442 20.4707C28.1369 20.2725 28.3823 20.0601 28.5806 19.8335C28.7788 19.5975 28.9299 19.3709 29.0337 19.1538C29.0526 18.7951 29.062 18.3986 29.062 17.9644C29.062 17.5207 29.062 17.0203 29.062 16.4634V13.7021ZM45.5586 12.4561C45.5586 11.21 45.3084 10.2943 44.8081 9.70898C44.3078 9.1237 43.6375 8.83105 42.7974 8.83105C42.4953 8.83105 42.1554 8.89714 41.7778 9.0293C41.4002 9.15202 41.0132 9.32194 40.6167 9.53906C40.2202 9.74674 39.8237 9.99219 39.4272 10.2754C39.0308 10.5586 38.6579 10.8607 38.3086 11.1816L38.2803 13.0366V16.4634C38.2803 17.2658 38.2897 17.9691 38.3086 18.5732C38.3275 19.168 38.3558 19.6825 38.3936 20.1167C38.4313 20.5509 38.4738 20.9144 38.521 21.207C38.5682 21.4997 38.6201 21.7451 38.6768 21.9434V22H35.4058V21.9434C35.4624 21.7451 35.5143 21.4997 35.5615 21.207C35.6182 20.9144 35.6606 20.5509 35.689 20.1167C35.7267 19.6825 35.755 19.168 35.7739 18.5732C35.8022 17.9691 35.8164 17.2658 35.8164 16.4634V13.0366C35.8164 12.2342 35.8022 11.5356 35.7739 10.9409C35.755 10.3368 35.7267 9.81755 35.689 9.3833C35.6606 8.94906 35.6182 8.58561 35.5615 8.29297C35.5143 8.00033 35.4624 7.75488 35.4058 7.55664V7.5H38.6768V7.55664C38.6012 7.79264 38.5399 8.09473 38.4927 8.46289C38.4549 8.82161 38.4124 9.29362 38.3652 9.87891C38.7523 9.55794 39.1676 9.23698 39.6113 8.91602C40.0645 8.59505 40.5317 8.31185 41.0132 8.06641C41.4946 7.81152 41.9855 7.60856 42.4858 7.45752C42.9862 7.29704 43.4771 7.2168 43.9585 7.2168C44.6948 7.2168 45.3179 7.34424 45.8276 7.59912C46.3468 7.854 46.7669 8.18913 47.0879 8.60449C47.4183 9.01986 47.6543 9.49658 47.7959 10.0347C47.9469 10.5633 48.0225 11.1014 48.0225 11.6489V16.4634C48.0225 17.2658 48.0319 17.9691 48.0508 18.5732C48.0697 19.168 48.098 19.6825 48.1357 20.1167C48.1735 20.5509 48.216 20.9144 48.2632 21.207C48.3104 21.4997 48.3623 21.7451 48.4189 21.9434V22H45.1479V21.9434C45.2046 21.7451 45.2565 21.4997 45.3037 21.207C45.3604 20.9144 45.4028 20.5509 45.4312 20.1167C45.4689 19.6825 45.4972 19.168 45.5161 18.5732C45.5444 17.9691 45.5586 17.2658 45.5586 16.4634V12.4561ZM58.7559 7.24512C59.1429 7.24512 59.5299 7.27816 59.917 7.34424C60.304 7.41032 60.6816 7.50472 61.0498 7.62744C61.418 7.75016 61.7673 7.9012 62.0977 8.08057C62.4281 8.25993 62.7254 8.46289 62.9897 8.68945V6.36719C62.9897 5.56478 62.9803 4.86621 62.9614 4.27148C62.9425 3.66732 62.9142 3.14811 62.8765 2.71387C62.8387 2.27962 62.7962 1.91618 62.749 1.62354C62.7018 1.33089 62.6499 1.08545 62.5933 0.887207V0.830566H65.8643V0.887207C65.8076 1.08545 65.751 1.33089 65.6943 1.62354C65.6471 1.91618 65.6047 2.27962 65.5669 2.71387C65.5386 3.14811 65.5103 3.66732 65.4819 4.27148C65.4631 4.86621 65.4536 5.56478 65.4536 6.36719V16.4634C65.4536 17.2658 65.4631 17.9691 65.4819 18.5732C65.5103 19.168 65.5386 19.6825 65.5669 20.1167C65.6047 20.5509 65.6471 20.9144 65.6943 21.207C65.751 21.4997 65.8076 21.7451 65.8643 21.9434V22H62.7349V21.9434C62.7632 21.8678 62.7868 21.7593 62.8057 21.6177C62.8245 21.4666 62.8481 21.2826 62.8765 21.0654C62.395 21.3675 61.7909 21.6413 61.064 21.8867C60.3371 22.1322 59.4922 22.2549 58.5293 22.2549C57.4059 22.2549 56.3864 22.0802 55.4707 21.731C54.555 21.3817 53.7715 20.8813 53.1201 20.23C52.4782 19.5786 51.9826 18.7904 51.6333 17.8652C51.284 16.9307 51.1094 15.8828 51.1094 14.7217C51.1094 13.6549 51.2982 12.6685 51.6758 11.7622C52.0534 10.8465 52.582 10.0535 53.2617 9.3833C53.9414 8.71305 54.7485 8.18913 55.6831 7.81152C56.6177 7.43392 57.6419 7.24512 58.7559 7.24512ZM62.9897 11.1816C62.6121 10.1904 62.0693 9.45882 61.3613 8.98682C60.6628 8.51481 59.8745 8.27881 58.9966 8.27881C58.2603 8.27881 57.5806 8.41097 56.9575 8.67529C56.3345 8.93018 55.8011 9.30306 55.3574 9.79395C54.9137 10.2848 54.5645 10.889 54.3096 11.6064C54.0641 12.3145 53.9414 13.1216 53.9414 14.0278C53.9414 15.0474 54.0547 15.9961 54.2812 16.874C54.5078 17.752 54.8382 18.5166 55.2725 19.168C55.7161 19.8099 56.2637 20.3149 56.915 20.6831C57.5664 21.0418 58.3169 21.2212 59.1665 21.2212C59.6102 21.2212 60.0256 21.1693 60.4126 21.0654C60.7996 20.9616 61.1536 20.8294 61.4746 20.6689C61.7956 20.5085 62.0788 20.3338 62.3242 20.145C62.5697 19.9468 62.7726 19.7533 62.9331 19.5645C62.952 19.1585 62.9661 18.696 62.9756 18.1768C62.985 17.6576 62.9897 17.0864 62.9897 16.4634V11.1816ZM69.9141 6.36719C69.9141 5.56478 69.8999 4.86621 69.8716 4.27148C69.8527 3.66732 69.8244 3.14811 69.7866 2.71387C69.7583 2.27962 69.7158 1.91618 69.6592 1.62354C69.612 1.33089 69.5601 1.08545 69.5034 0.887207V0.830566H72.7744V0.887207C72.7178 1.08545 72.6659 1.33089 72.6187 1.62354C72.5715 1.91618 72.529 2.27962 72.4912 2.71387C72.4535 3.14811 72.4251 3.66732 72.4062 4.27148C72.3874 4.86621 72.3779 5.56478 72.3779 6.36719V16.4634C72.3779 17.2658 72.3874 17.9691 72.4062 18.5732C72.4251 19.168 72.4535 19.6825 72.4912 20.1167C72.529 20.5509 72.5715 20.9144 72.6187 21.207C72.6659 21.4997 72.7178 21.7451 72.7744 21.9434V22H69.5034V21.9434C69.5601 21.7451 69.612 21.4997 69.6592 21.207C69.7158 20.9144 69.7583 20.5509 69.7866 20.1167C69.8244 19.6825 69.8527 19.168 69.8716 18.5732C69.8999 17.9691 69.9141 17.2658 69.9141 16.4634V6.36719ZM83.168 22.2549C82.1201 22.2549 81.1383 22.0897 80.2227 21.7593C79.307 21.4289 78.5093 20.9474 77.8296 20.3149C77.1499 19.673 76.6118 18.8848 76.2153 17.9502C75.8283 17.0062 75.6348 15.93 75.6348 14.7217C75.6348 13.6549 75.8141 12.6685 76.1729 11.7622C76.5316 10.8465 77.0272 10.0535 77.6597 9.3833C78.2922 8.71305 79.0285 8.18913 79.8687 7.81152C80.7183 7.43392 81.634 7.24512 82.6157 7.24512C83.5881 7.24512 84.4896 7.41504 85.3203 7.75488C86.151 8.08529 86.8685 8.57145 87.4727 9.21338C88.0863 9.84587 88.5677 10.6341 88.917 11.5781C89.2757 12.5127 89.4692 13.5794 89.4976 14.7783C88.4308 14.7594 87.3641 14.7453 86.2974 14.7358C85.2306 14.7264 84.1214 14.7217 82.9697 14.7217C82.1484 14.7217 81.346 14.7264 80.5625 14.7358C79.7884 14.7453 79.0898 14.7594 78.4668 14.7783C78.5234 15.7601 78.6745 16.6475 78.9199 17.4404C79.1748 18.2334 79.5194 18.9131 79.9536 19.4795C80.3973 20.0365 80.9307 20.466 81.5537 20.7681C82.1862 21.0701 82.8989 21.2212 83.6919 21.2212C84.2394 21.2212 84.7539 21.1598 85.2354 21.0371C85.7262 20.9049 86.1699 20.7256 86.5664 20.499C86.9629 20.2725 87.3169 20.0081 87.6284 19.7061C87.9399 19.3945 88.2043 19.0594 88.4214 18.7007L88.5913 18.7856L87.5435 21.3062C87.0337 21.5705 86.4248 21.797 85.7168 21.9858C85.0088 22.1652 84.1592 22.2549 83.168 22.2549ZM81.2847 13.6172C82.2287 13.6172 83.1727 13.6172 84.1167 13.6172C85.0701 13.6077 85.9339 13.5889 86.708 13.5605C86.623 12.7393 86.4626 12.0029 86.2266 11.3516C85.9906 10.7002 85.6885 10.1479 85.3203 9.69482C84.9521 9.2417 84.5179 8.89242 84.0176 8.64697C83.5173 8.40153 82.965 8.27881 82.3608 8.27881C81.8133 8.27881 81.3083 8.40153 80.8457 8.64697C80.3926 8.88298 79.9961 9.22754 79.6562 9.68066C79.3164 10.1338 79.0426 10.6908 78.835 11.3516C78.6273 12.0029 78.5046 12.7487 78.4668 13.5889C78.8916 13.6077 79.34 13.6172 79.812 13.6172C80.284 13.6172 80.7749 13.6172 81.2847 13.6172ZM98.9424 10.3462L98.7441 10.3745C98.6781 10.1574 98.5695 9.92611 98.4185 9.68066C98.2769 9.43522 98.0881 9.20866 97.8521 9.00098C97.6255 8.79329 97.347 8.62337 97.0166 8.49121C96.6956 8.34961 96.3228 8.27881 95.8979 8.27881C95.6053 8.27881 95.3268 8.32129 95.0625 8.40625C94.8076 8.49121 94.5811 8.61865 94.3828 8.78857C94.194 8.94906 94.043 9.15202 93.9297 9.39746C93.8164 9.6429 93.7598 9.93083 93.7598 10.2612C93.7598 10.7238 93.9014 11.1675 94.1846 11.5923C94.4772 12.0076 94.8407 12.423 95.2749 12.8384C95.7091 13.2443 96.1764 13.6549 96.6768 14.0703C97.1865 14.4857 97.6585 14.9199 98.0928 15.373C98.527 15.8262 98.8857 16.3123 99.1689 16.8315C99.4616 17.3413 99.6079 17.8936 99.6079 18.4883C99.6079 18.9697 99.5229 19.4417 99.353 19.9043C99.1831 20.3574 98.9188 20.7633 98.5601 21.1221C98.2108 21.4808 97.7576 21.7734 97.2007 22C96.6532 22.2171 95.9971 22.3257 95.2324 22.3257C94.7793 22.3257 94.3545 22.2832 93.958 22.1982C93.571 22.1133 93.2122 22.0094 92.8818 21.8867C92.5609 21.7546 92.2682 21.613 92.0039 21.4619C91.749 21.3014 91.5225 21.1504 91.3242 21.0088L91.4658 18.3184H91.6924C91.7868 18.762 91.9284 19.168 92.1172 19.5361C92.306 19.9043 92.5373 20.2205 92.811 20.4849C93.0942 20.7397 93.4152 20.9427 93.7739 21.0938C94.1326 21.2354 94.5244 21.3062 94.9492 21.3062C95.6478 21.3062 96.2 21.1126 96.606 20.7256C97.0213 20.3385 97.229 19.8335 97.229 19.2104C97.229 18.7101 97.0874 18.2523 96.8042 17.8369C96.5304 17.4121 96.1812 17.0062 95.7563 16.6191C95.3315 16.2321 94.8737 15.8451 94.3828 15.458C93.9014 15.071 93.4482 14.6603 93.0234 14.2261C92.5986 13.7824 92.2446 13.3009 91.9614 12.7817C91.6877 12.2531 91.5508 11.6536 91.5508 10.9834C91.5508 10.4359 91.6499 9.93555 91.8481 9.48242C92.0558 9.01986 92.339 8.62809 92.6978 8.30713C93.0659 7.97673 93.5002 7.72184 94.0005 7.54248C94.5008 7.36312 95.0483 7.27344 95.6431 7.27344C96.4266 7.27344 97.078 7.3584 97.5972 7.52832C98.1258 7.6888 98.527 7.84456 98.8008 7.99561L98.9424 10.3462Z" fill="black"/>
</svg>
