<svg width="172" height="38" viewBox="0 0 172 38" fill="none" xmlns="http://www.w3.org/2000/svg">
<path d="M29.8115 7.36133L29.5918 7.45898C28.3223 6.28711 26.7923 5.35124 25.002 4.65137C23.2279 3.9515 21.2747 3.60156 19.1426 3.60156C17.0918 3.60156 15.2119 3.92708 13.5029 4.57812C11.7939 5.21289 10.321 6.14062 9.08398 7.36133C7.86328 8.58203 6.91113 10.0794 6.22754 11.8535C5.54395 13.6276 5.20215 15.6458 5.20215 17.9082C5.20215 20.3984 5.52767 22.7259 6.17871 24.8906C6.82975 27.0391 7.79818 28.9027 9.08398 30.4814C10.3698 32.0602 11.973 33.3053 13.8936 34.2168C15.8304 35.112 18.0846 35.5596 20.6562 35.5596C21.584 35.5596 22.5117 35.4619 23.4395 35.2666C24.3672 35.0713 25.2542 34.7865 26.1006 34.4121C26.9632 34.0215 27.7689 33.5576 28.5176 33.0205C29.2826 32.4671 29.9743 31.8405 30.5928 31.1406L30.8613 31.3115L28.9082 36.292C27.6875 36.764 26.3366 37.1221 24.8555 37.3662C23.3906 37.6266 21.9095 37.7568 20.4121 37.7568C17.401 37.7568 14.6423 37.3255 12.1357 36.4629C9.64551 35.584 7.49707 34.347 5.69043 32.752C3.90007 31.1569 2.50033 29.2445 1.49121 27.0146C0.498372 24.7686 0.00195312 22.2783 0.00195312 19.5439C0.00195312 17.9977 0.197266 16.4759 0.587891 14.9785C0.994792 13.4811 1.58073 12.057 2.3457 10.7061C3.11068 9.35514 4.05469 8.11816 5.17773 6.99512C6.30078 5.85579 7.57845 4.87109 9.01074 4.04102C10.4593 3.21094 12.0462 2.56803 13.7715 2.1123C15.513 1.6403 17.3929 1.4043 19.4111 1.4043C22.5524 1.4043 25.4658 1.88444 28.1514 2.84473L29.8115 7.36133ZM33.6445 29.7979C33.6445 28.512 33.9049 27.3971 34.4258 26.4531C34.9629 25.5091 35.6709 24.7035 36.5498 24.0361C37.4287 23.3688 38.4297 22.8317 39.5527 22.4248C40.6758 22.0016 41.8395 21.6761 43.0439 21.4482C44.2484 21.2041 45.4365 21.0413 46.6084 20.96C47.7803 20.8623 48.8545 20.8053 49.8311 20.7891V19.5439C49.8311 18.4697 49.6927 17.542 49.416 16.7607C49.1393 15.9795 48.7487 15.3366 48.2441 14.832C47.7396 14.3112 47.1292 13.9287 46.4131 13.6846C45.7132 13.4242 44.9401 13.2939 44.0938 13.2939C43.5078 13.2939 42.93 13.3428 42.3604 13.4404C41.7907 13.5381 41.1966 13.7008 40.5781 13.9287C39.9759 14.1566 39.333 14.4658 38.6494 14.8564C37.9821 15.2471 37.2578 15.7435 36.4766 16.3457L36.2324 16.1992L37.8926 12.7568C38.4297 12.5127 38.9587 12.3174 39.4795 12.1709C40.0003 12.0081 40.5293 11.8779 41.0664 11.7803C41.6035 11.6826 42.1488 11.6175 42.7021 11.585C43.2718 11.5361 43.8659 11.5117 44.4844 11.5117C46.1934 11.5117 47.6501 11.7233 48.8545 12.1465C50.0752 12.5534 51.068 13.123 51.833 13.8555C52.6143 14.5716 53.1839 15.418 53.542 16.3945C53.9001 17.3548 54.0791 18.3883 54.0791 19.4951V27.4541C54.0791 28.8376 54.0954 30.0501 54.1279 31.0918C54.1768 32.1172 54.2256 33.0042 54.2744 33.7529C54.3395 34.5016 54.4128 35.1283 54.4941 35.6328C54.5918 36.1374 54.6895 36.5605 54.7871 36.9023V37H49.3916V36.9023C49.473 36.6419 49.5299 36.349 49.5625 36.0234C49.6113 35.6979 49.652 35.3073 49.6846 34.8516C49.3428 35.1445 48.9359 35.4456 48.4639 35.7549C48.0081 36.0641 47.4792 36.349 46.877 36.6094C46.291 36.8535 45.6318 37.0488 44.8994 37.1953C44.1833 37.3581 43.3939 37.4395 42.5312 37.4395C39.6992 37.4395 37.5101 36.7803 35.9639 35.4619C34.4176 34.1273 33.6445 32.2393 33.6445 29.7979ZM49.8311 22.6934C48.3499 22.7096 46.9258 22.7992 45.5586 22.9619C44.1914 23.1084 42.9788 23.4258 41.9209 23.9141C40.8792 24.4023 40.041 25.1022 39.4062 26.0137C38.7878 26.9089 38.4785 28.1051 38.4785 29.6025C38.4785 31.5231 38.9587 32.988 39.9189 33.9971C40.8792 35.0062 42.2057 35.5107 43.8984 35.5107C44.6797 35.5107 45.3877 35.4049 46.0225 35.1934C46.6735 34.9655 47.2432 34.6888 47.7314 34.3633C48.236 34.0215 48.6592 33.6553 49.001 33.2646C49.3428 32.8577 49.6032 32.4671 49.7822 32.0928C49.8148 31.4743 49.8311 30.7907 49.8311 30.042C49.8311 29.277 49.8311 28.4144 49.8311 27.4541V22.6934ZM78.2734 20.5449C78.2734 18.3965 77.8421 16.8177 76.9795 15.8086C76.1169 14.7995 74.9613 14.2949 73.5127 14.2949C72.9919 14.2949 72.4059 14.4089 71.7549 14.6367C71.1038 14.8483 70.4365 15.1413 69.7529 15.5156C69.0693 15.8737 68.3857 16.2969 67.7021 16.7852C67.0186 17.2734 66.3757 17.7943 65.7734 18.3477L65.7246 21.5459V27.4541C65.7246 28.8376 65.7409 30.0501 65.7734 31.0918C65.806 32.1172 65.8548 33.0042 65.9199 33.7529C65.985 34.5016 66.0583 35.1283 66.1396 35.6328C66.221 36.1374 66.3105 36.5605 66.4082 36.9023V37H60.7686V36.9023C60.8662 36.5605 60.9557 36.1374 61.0371 35.6328C61.1348 35.1283 61.208 34.5016 61.2568 33.7529C61.3219 33.0042 61.3708 32.1172 61.4033 31.0918C61.4521 30.0501 61.4766 28.8376 61.4766 27.4541V21.5459C61.4766 20.1624 61.4521 18.958 61.4033 17.9326C61.3708 16.891 61.3219 15.9958 61.2568 15.2471C61.208 14.4984 61.1348 13.8717 61.0371 13.3672C60.9557 12.8626 60.8662 12.4395 60.7686 12.0977V12H66.4082V12.0977C66.278 12.5046 66.1722 13.0254 66.0908 13.6602C66.0257 14.2786 65.9525 15.0924 65.8711 16.1016C66.5384 15.5482 67.2546 14.9948 68.0195 14.4414C68.8008 13.888 69.6064 13.3997 70.4365 12.9766C71.2666 12.5371 72.113 12.1872 72.9756 11.9268C73.8382 11.6501 74.6846 11.5117 75.5146 11.5117C76.7842 11.5117 77.8584 11.7314 78.7373 12.1709C79.6325 12.6104 80.3568 13.1882 80.9102 13.9043C81.4798 14.6204 81.8867 15.4424 82.1309 16.3701C82.3913 17.2816 82.5215 18.2093 82.5215 19.1533V27.4541C82.5215 28.8376 82.5378 30.0501 82.5703 31.0918C82.6029 32.1172 82.6517 33.0042 82.7168 33.7529C82.7819 34.5016 82.8551 35.1283 82.9365 35.6328C83.0179 36.1374 83.1074 36.5605 83.2051 36.9023V37H77.5654V36.9023C77.6631 36.5605 77.7526 36.1374 77.834 35.6328C77.9316 35.1283 78.0049 34.5016 78.0537 33.7529C78.1188 33.0042 78.1676 32.1172 78.2002 31.0918C78.249 30.0501 78.2734 28.8376 78.2734 27.4541V20.5449ZM101.027 11.5605C101.695 11.5605 102.362 11.6175 103.029 11.7314C103.697 11.8454 104.348 12.0081 104.982 12.2197C105.617 12.4313 106.219 12.6917 106.789 13.001C107.359 13.3102 107.871 13.6602 108.327 14.0508V10.0469C108.327 8.66341 108.311 7.45898 108.278 6.43359C108.246 5.39193 108.197 4.49674 108.132 3.74805C108.067 2.99935 107.993 2.37272 107.912 1.86816C107.831 1.36361 107.741 0.94043 107.644 0.598633V0.500977H113.283V0.598633C113.186 0.94043 113.088 1.36361 112.99 1.86816C112.909 2.37272 112.836 2.99935 112.771 3.74805C112.722 4.49674 112.673 5.39193 112.624 6.43359C112.591 7.45898 112.575 8.66341 112.575 10.0469V27.4541C112.575 28.8376 112.591 30.0501 112.624 31.0918C112.673 32.1172 112.722 33.0042 112.771 33.7529C112.836 34.5016 112.909 35.1283 112.99 35.6328C113.088 36.1374 113.186 36.5605 113.283 36.9023V37H107.888V36.9023C107.937 36.7721 107.977 36.585 108.01 36.3408C108.042 36.0804 108.083 35.763 108.132 35.3887C107.302 35.9095 106.26 36.3815 105.007 36.8047C103.754 37.2279 102.297 37.4395 100.637 37.4395C98.6999 37.4395 96.9421 37.1383 95.3633 36.5361C93.7845 35.9339 92.4336 35.0713 91.3105 33.9482C90.2038 32.8252 89.3493 31.4661 88.7471 29.8711C88.1449 28.2598 87.8438 26.4531 87.8438 24.4512C87.8438 22.612 88.1693 20.9111 88.8203 19.3486C89.4714 17.7699 90.3828 16.4027 91.5547 15.2471C92.7266 14.0915 94.1182 13.1882 95.7295 12.5371C97.3408 11.8861 99.1068 11.5605 101.027 11.5605ZM108.327 18.3477C107.676 16.6387 106.74 15.3773 105.52 14.5635C104.315 13.7497 102.956 13.3428 101.442 13.3428C100.173 13.3428 99.001 13.5706 97.9268 14.0264C96.8525 14.4658 95.9329 15.1087 95.168 15.9551C94.403 16.8014 93.8008 17.8431 93.3613 19.0801C92.9382 20.3008 92.7266 21.6924 92.7266 23.2549C92.7266 25.0127 92.9219 26.6484 93.3125 28.1621C93.7031 29.6758 94.2728 30.9941 95.0215 32.1172C95.7865 33.224 96.7305 34.0947 97.8535 34.7295C98.9766 35.348 100.271 35.6572 101.735 35.6572C102.5 35.6572 103.216 35.5677 103.884 35.3887C104.551 35.2096 105.161 34.9818 105.715 34.7051C106.268 34.4284 106.757 34.1273 107.18 33.8018C107.603 33.46 107.953 33.1263 108.229 32.8008C108.262 32.1009 108.286 31.3034 108.303 30.4082C108.319 29.513 108.327 28.5283 108.327 27.4541V18.3477ZM120.266 10.0469C120.266 8.66341 120.241 7.45898 120.192 6.43359C120.16 5.39193 120.111 4.49674 120.046 3.74805C119.997 2.99935 119.924 2.37272 119.826 1.86816C119.745 1.36361 119.655 0.94043 119.558 0.598633V0.500977H125.197V0.598633C125.1 0.94043 125.01 1.36361 124.929 1.86816C124.847 2.37272 124.774 2.99935 124.709 3.74805C124.644 4.49674 124.595 5.39193 124.562 6.43359C124.53 7.45898 124.514 8.66341 124.514 10.0469V27.4541C124.514 28.8376 124.53 30.0501 124.562 31.0918C124.595 32.1172 124.644 33.0042 124.709 33.7529C124.774 34.5016 124.847 35.1283 124.929 35.6328C125.01 36.1374 125.1 36.5605 125.197 36.9023V37H119.558V36.9023C119.655 36.5605 119.745 36.1374 119.826 35.6328C119.924 35.1283 119.997 34.5016 120.046 33.7529C120.111 33.0042 120.16 32.1172 120.192 31.0918C120.241 30.0501 120.266 28.8376 120.266 27.4541V10.0469ZM143.117 37.4395C141.311 37.4395 139.618 37.1546 138.039 36.585C136.46 36.0153 135.085 35.1852 133.913 34.0947C132.741 32.988 131.813 31.6289 131.13 30.0176C130.463 28.39 130.129 26.5345 130.129 24.4512C130.129 22.612 130.438 20.9111 131.057 19.3486C131.675 17.7699 132.53 16.4027 133.62 15.2471C134.711 14.0915 135.98 13.1882 137.429 12.5371C138.894 11.8861 140.472 11.5605 142.165 11.5605C143.841 11.5605 145.396 11.8535 146.828 12.4395C148.26 13.0091 149.497 13.8473 150.539 14.9541C151.597 16.0446 152.427 17.4036 153.029 19.0312C153.648 20.6426 153.981 22.4818 154.03 24.5488C152.191 24.5163 150.352 24.4919 148.513 24.4756C146.674 24.4593 144.761 24.4512 142.775 24.4512C141.359 24.4512 139.976 24.4593 138.625 24.4756C137.29 24.4919 136.086 24.5163 135.012 24.5488C135.109 26.2415 135.37 27.7715 135.793 29.1387C136.232 30.5059 136.826 31.6777 137.575 32.6543C138.34 33.6146 139.26 34.3551 140.334 34.876C141.424 35.3968 142.653 35.6572 144.021 35.6572C144.965 35.6572 145.852 35.5514 146.682 35.3398C147.528 35.112 148.293 34.8027 148.977 34.4121C149.66 34.0215 150.271 33.5658 150.808 33.0449C151.345 32.5078 151.8 31.93 152.175 31.3115L152.468 31.458L150.661 35.8037C149.782 36.2594 148.732 36.6501 147.512 36.9756C146.291 37.2848 144.826 37.4395 143.117 37.4395ZM139.87 22.5469C141.498 22.5469 143.125 22.5469 144.753 22.5469C146.397 22.5306 147.886 22.498 149.221 22.4492C149.074 21.0332 148.798 19.7637 148.391 18.6406C147.984 17.5176 147.463 16.5654 146.828 15.7842C146.193 15.0029 145.445 14.4007 144.582 13.9775C143.719 13.5544 142.767 13.3428 141.726 13.3428C140.782 13.3428 139.911 13.5544 139.113 13.9775C138.332 14.3844 137.648 14.9785 137.062 15.7598C136.477 16.541 136.005 17.5013 135.646 18.6406C135.288 19.7637 135.077 21.0495 135.012 22.498C135.744 22.5306 136.517 22.5469 137.331 22.5469C138.145 22.5469 138.991 22.5469 139.87 22.5469ZM170.314 16.9072L169.973 16.9561C169.859 16.5817 169.672 16.1829 169.411 15.7598C169.167 15.3366 168.841 14.946 168.435 14.5879C168.044 14.2298 167.564 13.9368 166.994 13.709C166.441 13.4648 165.798 13.3428 165.065 13.3428C164.561 13.3428 164.081 13.416 163.625 13.5625C163.186 13.709 162.795 13.9287 162.453 14.2217C162.128 14.4984 161.867 14.8483 161.672 15.2715C161.477 15.6947 161.379 16.1911 161.379 16.7607C161.379 17.5583 161.623 18.3232 162.111 19.0557C162.616 19.7718 163.243 20.488 163.991 21.2041C164.74 21.904 165.546 22.612 166.408 23.3281C167.287 24.0443 168.101 24.793 168.85 25.5742C169.598 26.3555 170.217 27.1937 170.705 28.0889C171.21 28.9678 171.462 29.9199 171.462 30.9453C171.462 31.7754 171.315 32.5892 171.022 33.3867C170.729 34.168 170.274 34.8678 169.655 35.4863C169.053 36.1048 168.272 36.6094 167.312 37C166.368 37.3743 165.236 37.5615 163.918 37.5615C163.137 37.5615 162.404 37.4883 161.721 37.3418C161.053 37.1953 160.435 37.0163 159.865 36.8047C159.312 36.5768 158.807 36.3327 158.352 36.0723C157.912 35.7956 157.521 35.5352 157.18 35.291L157.424 30.6523H157.814C157.977 31.4173 158.221 32.1172 158.547 32.752C158.872 33.3867 159.271 33.932 159.743 34.3877C160.231 34.8271 160.785 35.1771 161.403 35.4375C162.022 35.6816 162.697 35.8037 163.43 35.8037C164.634 35.8037 165.586 35.4701 166.286 34.8027C167.002 34.1354 167.36 33.2646 167.36 32.1904C167.36 31.3278 167.116 30.5384 166.628 29.8223C166.156 29.0898 165.554 28.39 164.821 27.7227C164.089 27.0553 163.299 26.388 162.453 25.7207C161.623 25.0534 160.842 24.3454 160.109 23.5967C159.377 22.8317 158.767 22.0016 158.278 21.1064C157.806 20.195 157.57 19.1615 157.57 18.0059C157.57 17.0618 157.741 16.1992 158.083 15.418C158.441 14.6204 158.929 13.945 159.548 13.3916C160.183 12.8219 160.931 12.3825 161.794 12.0732C162.657 11.764 163.601 11.6094 164.626 11.6094C165.977 11.6094 167.1 11.7559 167.995 12.0488C168.907 12.3255 169.598 12.5941 170.07 12.8545L170.314 16.9072Z" fill="black"/>
</svg>
