<svg width="115" height="12" viewBox="0 0 115 12" fill="none" xmlns="http://www.w3.org/2000/svg">
<path d="M5.42725 2.16699H5.26611C5.22705 2.05469 5.16357 1.92773 5.07568 1.78613C4.99268 1.64453 4.88037 1.5127 4.73877 1.39062C4.60205 1.26367 4.43359 1.15869 4.2334 1.07568C4.03809 0.992676 3.80615 0.951172 3.5376 0.951172C3.29834 0.951172 3.08594 0.987793 2.90039 1.06104C2.71484 1.13428 2.55859 1.23682 2.43164 1.36865C2.30957 1.50049 2.2168 1.65674 2.15332 1.8374C2.08984 2.01807 2.05811 2.21826 2.05811 2.43799C2.05811 2.78955 2.15576 3.12646 2.35107 3.44873C2.55127 3.76611 2.80029 4.08105 3.09814 4.39355C3.396 4.70605 3.71826 5.01855 4.06494 5.33105C4.41162 5.64355 4.73389 5.96826 5.03174 6.30518C5.32959 6.64209 5.57617 6.99609 5.77148 7.36719C5.97168 7.7334 6.07178 8.12891 6.07178 8.55371C6.07178 8.87109 6.01562 9.19092 5.90332 9.51318C5.7959 9.83057 5.62744 10.1162 5.39795 10.3701C5.16846 10.624 4.87305 10.8315 4.51172 10.9927C4.15039 11.1489 3.7207 11.2271 3.22266 11.2271C2.94434 11.2271 2.67822 11.2002 2.42432 11.1465C2.17529 11.0977 1.94336 11.0366 1.72852 10.9634C1.51855 10.8853 1.32812 10.8022 1.15723 10.7144C0.991211 10.6265 0.854492 10.5459 0.74707 10.4727L0.915527 8.854H1.09863C1.15234 9.0835 1.24023 9.30322 1.3623 9.51318C1.48438 9.71826 1.6333 9.90137 1.80908 10.0625C1.98975 10.2188 2.19482 10.3457 2.42432 10.4434C2.65381 10.5361 2.90527 10.5825 3.17871 10.5825C3.42773 10.5825 3.6499 10.5459 3.84521 10.4727C4.04541 10.3945 4.21631 10.2896 4.35791 10.1577C4.49951 10.021 4.60693 9.85986 4.68018 9.67432C4.7583 9.48877 4.79736 9.28613 4.79736 9.06641C4.79736 8.75879 4.74121 8.47559 4.62891 8.2168C4.5166 7.95312 4.36768 7.7041 4.18213 7.46973C4.00146 7.23535 3.79395 7.0083 3.55957 6.78857C3.33008 6.56885 3.09326 6.34912 2.84912 6.12939C2.60498 5.90479 2.36572 5.67529 2.13135 5.44092C1.90186 5.20654 1.69434 4.95752 1.50879 4.69385C1.32812 4.42529 1.18164 4.13965 1.06934 3.83691C0.957031 3.5293 0.900879 3.19238 0.900879 2.82617C0.900879 2.44043 0.974121 2.09375 1.12061 1.78613C1.27197 1.47363 1.46973 1.20752 1.71387 0.987793C1.96289 0.768066 2.24365 0.599609 2.55615 0.482422C2.86865 0.365234 3.19092 0.306641 3.52295 0.306641C3.76709 0.306641 3.9917 0.326172 4.19678 0.365234C4.40186 0.404297 4.58496 0.450684 4.74609 0.504395C4.91211 0.558105 5.05615 0.611816 5.17822 0.665527C5.30029 0.719238 5.40039 0.763184 5.47852 0.797363L5.42725 2.16699ZM7.35352 10.9707C7.40723 10.8926 7.46826 10.7778 7.53662 10.6265C7.60498 10.4702 7.65869 10.2749 7.69775 10.0405C7.75146 9.69873 7.81006 9.31543 7.87354 8.89062C7.94189 8.46094 8.01025 8.01172 8.07861 7.54297C8.15186 7.07422 8.22266 6.5957 8.29102 6.10742C8.36426 5.61426 8.43262 5.13086 8.49609 4.65723C8.56445 4.17871 8.62793 3.71973 8.68652 3.28027C8.75 2.83594 8.80615 2.43066 8.85498 2.06445C8.90381 1.69824 8.94287 1.38086 8.97217 1.1123C9.00635 0.838867 9.03076 0.633789 9.04541 0.49707H9.97559L14.5825 9.11035L19.1528 0.49707H19.8486L21.0498 9.19824C21.084 9.47168 21.1206 9.70605 21.1597 9.90137C21.1987 10.0967 21.2378 10.2651 21.2769 10.4067C21.3159 10.5435 21.3525 10.6582 21.3867 10.751C21.4258 10.8389 21.4624 10.9121 21.4966 10.9707V11H19.6509V10.9707C19.6753 10.917 19.6973 10.8291 19.7168 10.707C19.7412 10.585 19.7534 10.4385 19.7534 10.2676C19.7534 10.2041 19.751 10.1406 19.7461 10.0771C19.7412 10.0088 19.7339 9.93555 19.7241 9.85742L18.7939 2.84082L14.4727 10.9707L13.9673 10.9121L9.6167 2.76758C9.4458 3.9248 9.29688 4.99414 9.16992 5.97559C9.11621 6.39551 9.0625 6.81543 9.00879 7.23535C8.95508 7.65039 8.90625 8.03857 8.8623 8.3999C8.82324 8.76123 8.7915 9.08105 8.76709 9.35938C8.74268 9.63281 8.73047 9.83545 8.73047 9.96729C8.73047 10.1333 8.73535 10.2798 8.74512 10.4067C8.75488 10.5337 8.76465 10.6411 8.77441 10.729C8.78906 10.8315 8.80371 10.9219 8.81836 11H7.35352V10.9707ZM27.9419 0.321289C28.7573 0.321289 29.5093 0.455566 30.1978 0.724121C30.8911 0.987793 31.4893 1.36133 31.9922 1.84473C32.4951 2.32324 32.8882 2.89941 33.1714 3.57324C33.4546 4.24707 33.5962 4.9917 33.5962 5.80713C33.5962 6.271 33.5425 6.72754 33.4351 7.17676C33.3276 7.62598 33.1689 8.05078 32.959 8.45117C32.7539 8.85156 32.5 9.22266 32.1973 9.56445C31.8945 9.90137 31.5479 10.1943 31.1572 10.4434C30.7715 10.6875 30.3442 10.8779 29.8755 11.0146C29.4067 11.1562 28.9014 11.2271 28.3594 11.2271C27.5439 11.2271 26.7896 11.0977 26.0962 10.8389C25.4077 10.5752 24.812 10.2041 24.3091 9.72559C23.8062 9.24707 23.4131 8.67334 23.1299 8.00439C22.8467 7.33057 22.7051 6.5835 22.7051 5.76318C22.7051 5.29932 22.7588 4.84277 22.8662 4.39355C22.9736 3.94434 23.1299 3.51709 23.335 3.11182C23.5449 2.70654 23.7988 2.33545 24.0967 1.99854C24.3994 1.65674 24.7437 1.36133 25.1294 1.1123C25.52 0.863281 25.9497 0.67041 26.4185 0.533691C26.8921 0.39209 27.3999 0.321289 27.9419 0.321289ZM28.3594 10.5679C28.9014 10.5679 29.397 10.4702 29.8462 10.2749C30.2954 10.0796 30.6812 9.79639 31.0034 9.42529C31.3306 9.0542 31.5845 8.60254 31.7651 8.07031C31.9458 7.5332 32.0361 6.92529 32.0361 6.24658C32.0361 5.49463 31.9482 4.79883 31.7725 4.15918C31.6016 3.51465 31.3452 2.95801 31.0034 2.48926C30.6616 2.01562 30.2344 1.64697 29.7217 1.3833C29.2139 1.11475 28.6206 0.980469 27.9419 0.980469C27.3999 0.980469 26.9043 1.07812 26.4551 1.27344C26.0059 1.46387 25.6177 1.74219 25.2905 2.1084C24.9683 2.47461 24.7168 2.92383 24.5361 3.45605C24.3555 3.98828 24.2651 4.59375 24.2651 5.27246C24.2651 6.01953 24.3506 6.71777 24.5215 7.36719C24.6924 8.01172 24.9487 8.5708 25.2905 9.04443C25.6323 9.51807 26.0596 9.8916 26.5723 10.165C27.085 10.4336 27.6807 10.5679 28.3594 10.5679ZM35.2515 10.9707C35.2808 10.8682 35.3076 10.7412 35.332 10.5898C35.3613 10.4385 35.3857 10.2505 35.4053 10.0259C35.4248 9.80127 35.4395 9.53516 35.4492 9.22754C35.459 8.91504 35.4639 8.55127 35.4639 8.13623V3.36816C35.4639 2.95312 35.459 2.5918 35.4492 2.28418C35.4395 1.97168 35.4248 1.70312 35.4053 1.47852C35.3857 1.24902 35.3613 1.05859 35.332 0.907227C35.3076 0.755859 35.2808 0.628906 35.2515 0.526367V0.49707H37.0093V0.526367C36.98 0.628906 36.9507 0.755859 36.9214 0.907227C36.897 1.05859 36.875 1.24902 36.8555 1.47852C36.8408 1.70312 36.8262 1.97168 36.8115 2.28418C36.8018 2.5918 36.7969 2.95312 36.7969 3.36816V5.00146L41.0742 1.50781C41.5527 1.11719 41.792 0.780273 41.792 0.49707H43.8501V0.526367C43.562 0.594727 43.269 0.726562 42.9712 0.921875C42.6782 1.1123 42.3657 1.34668 42.0337 1.625L38.2544 4.78906L42.8027 9.78418C42.9932 9.97949 43.1543 10.1431 43.2861 10.2749C43.4229 10.4019 43.5425 10.5093 43.645 10.5972C43.7476 10.6802 43.8403 10.751 43.9233 10.8096C44.0112 10.8633 44.1016 10.917 44.1943 10.9707V11H42.0483C42.0288 10.9561 41.9946 10.8999 41.9458 10.8315C41.9019 10.7632 41.8481 10.6924 41.7847 10.6191C41.7261 10.5459 41.6602 10.4702 41.5869 10.3921C41.5186 10.314 41.4526 10.2407 41.3892 10.1724L36.7969 5.1333V8.13623C36.7969 8.55127 36.8018 8.91504 36.8115 9.22754C36.8262 9.53516 36.8408 9.80127 36.8555 10.0259C36.875 10.2505 36.897 10.4385 36.9214 10.5898C36.9507 10.7412 36.98 10.8682 37.0093 10.9707V11H35.2515V10.9707ZM44.9487 0.49707C45.5591 0.49707 46.1646 0.494629 46.7651 0.489746C47.3706 0.484863 47.9248 0.47998 48.4277 0.475098C48.9307 0.465332 49.3604 0.453125 49.7168 0.438477C50.0732 0.423828 50.3149 0.404297 50.4419 0.379883L50.083 1.354C49.9219 1.31006 49.7339 1.271 49.519 1.23682C49.3335 1.20752 49.1064 1.18066 48.8379 1.15625C48.5742 1.12695 48.269 1.1123 47.9224 1.1123C47.8052 1.1123 47.6636 1.11719 47.4976 1.12695C47.3364 1.13184 47.1802 1.13916 47.0288 1.14893C46.853 1.15869 46.6748 1.16846 46.4941 1.17822V5.17725C46.9971 5.17236 47.4512 5.15771 47.8564 5.1333C48.2617 5.10889 48.606 5.08447 48.8892 5.06006C49.2212 5.03076 49.5142 4.99658 49.7681 4.95752L49.541 6.01953C49.2041 5.97559 48.8599 5.93408 48.5083 5.89502C48.2056 5.86084 47.876 5.83154 47.5195 5.80713C47.1631 5.77783 46.8213 5.76318 46.4941 5.76318V10.3555C47.0703 10.3555 47.6001 10.3311 48.0835 10.2822C48.5669 10.2334 48.9893 10.1772 49.3506 10.1138C49.7705 10.0454 50.1538 9.96484 50.5005 9.87207L50.2881 11.0586C50.2295 11.0537 50.1416 11.0488 50.0244 11.0439C49.9072 11.0391 49.7754 11.0342 49.6289 11.0293C49.4873 11.0244 49.3359 11.0195 49.1748 11.0146C49.0186 11.0146 48.8696 11.0122 48.728 11.0073C48.5864 11.0073 48.4595 11.0049 48.3472 11C48.2397 11 48.1616 11 48.1128 11H44.9487V10.9707C44.978 10.8682 45.0049 10.7412 45.0293 10.5898C45.0586 10.4385 45.083 10.2505 45.1025 10.0259C45.1221 9.80127 45.1367 9.53516 45.1465 9.22754C45.1562 8.91504 45.1611 8.55127 45.1611 8.13623V3.36816C45.1611 2.95312 45.1562 2.5918 45.1465 2.28418C45.1367 1.97168 45.1221 1.70312 45.1025 1.47852C45.083 1.24902 45.0586 1.05859 45.0293 0.907227C45.0049 0.755859 44.978 0.628906 44.9487 0.526367V0.49707ZM56.5796 5.96094V8.13623C56.5796 8.55127 56.5845 8.91504 56.5942 9.22754C56.604 9.53516 56.6187 9.80127 56.6382 10.0259C56.6577 10.2505 56.6797 10.4385 56.7041 10.5898C56.7334 10.7412 56.7627 10.8682 56.792 10.9707V11H55.0342V10.9707C55.0635 10.8682 55.0903 10.7412 55.1147 10.5898C55.144 10.4385 55.166 10.2505 55.1807 10.0259C55.2002 9.80127 55.2148 9.53516 55.2246 9.22754C55.2393 8.91504 55.2466 8.55127 55.2466 8.13623V6.10742L51.9727 1.6543C51.8604 1.50293 51.748 1.36377 51.6357 1.23682C51.5283 1.10986 51.4258 1 51.3281 0.907227C51.2305 0.80957 51.1426 0.729004 51.0645 0.665527C50.9863 0.602051 50.9253 0.555664 50.8813 0.526367V0.49707H53.1006C53.1006 0.609375 53.147 0.794922 53.2397 1.05371C53.3374 1.30762 53.5107 1.60791 53.7598 1.95459L56.1621 5.24316L58.5132 1.80811C58.5962 1.68604 58.6792 1.56152 58.7622 1.43457C58.8452 1.30762 58.9209 1.18555 58.9893 1.06836C59.0576 0.951172 59.1113 0.84375 59.1504 0.746094C59.1943 0.648438 59.2163 0.56543 59.2163 0.49707H60.6445V0.526367C60.5371 0.619141 60.3931 0.758301 60.2124 0.943848C60.0317 1.12451 59.8364 1.36621 59.6265 1.66895L56.5796 5.96094ZM72.9712 1.88135L75.9009 8.99316L78.75 2.01318C78.8623 1.7251 78.9453 1.48096 78.999 1.28076C79.0527 1.08057 79.0796 0.909668 79.0796 0.768066C79.0796 0.724121 79.0771 0.680176 79.0723 0.63623C79.0674 0.587402 79.0601 0.550781 79.0503 0.526367V0.49707H80.5005V0.526367C80.4028 0.633789 80.2954 0.804688 80.1782 1.03906C80.0659 1.27344 79.9341 1.56396 79.7827 1.91064L75.8716 11.2271H75.3149L72.4658 4.31299L69.8657 11.2271H69.3164L65.7275 2.26953C65.6396 2.05957 65.5493 1.85693 65.4565 1.66162C65.3687 1.46631 65.2832 1.29053 65.2002 1.13428C65.1221 0.978027 65.0513 0.846191 64.9878 0.73877C64.9194 0.631348 64.8706 0.560547 64.8413 0.526367V0.49707H66.8701V0.526367C66.8604 0.580078 66.8555 0.621582 66.8555 0.650879C66.8555 0.680176 66.8555 0.714355 66.8555 0.753418C66.8555 0.919434 66.8726 1.09521 66.9067 1.28076C66.9458 1.46631 67.019 1.69092 67.1265 1.95459L69.8804 8.9126L72.5098 1.91064L72.9712 1.88135ZM86.1255 0.321289C86.9409 0.321289 87.6929 0.455566 88.3813 0.724121C89.0747 0.987793 89.6729 1.36133 90.1758 1.84473C90.6787 2.32324 91.0718 2.89941 91.355 3.57324C91.6382 4.24707 91.7798 4.9917 91.7798 5.80713C91.7798 6.271 91.7261 6.72754 91.6187 7.17676C91.5112 7.62598 91.3525 8.05078 91.1426 8.45117C90.9375 8.85156 90.6836 9.22266 90.3809 9.56445C90.0781 9.90137 89.7314 10.1943 89.3408 10.4434C88.9551 10.6875 88.5278 10.8779 88.0591 11.0146C87.5903 11.1562 87.085 11.2271 86.543 11.2271C85.7275 11.2271 84.9731 11.0977 84.2798 10.8389C83.5913 10.5752 82.9956 10.2041 82.4927 9.72559C81.9897 9.24707 81.5967 8.67334 81.3135 8.00439C81.0303 7.33057 80.8887 6.5835 80.8887 5.76318C80.8887 5.29932 80.9424 4.84277 81.0498 4.39355C81.1572 3.94434 81.3135 3.51709 81.5186 3.11182C81.7285 2.70654 81.9824 2.33545 82.2803 1.99854C82.583 1.65674 82.9272 1.36133 83.313 1.1123C83.7036 0.863281 84.1333 0.67041 84.6021 0.533691C85.0757 0.39209 85.5835 0.321289 86.1255 0.321289ZM86.543 10.5679C87.085 10.5679 87.5806 10.4702 88.0298 10.2749C88.479 10.0796 88.8647 9.79639 89.187 9.42529C89.5142 9.0542 89.7681 8.60254 89.9487 8.07031C90.1294 7.5332 90.2197 6.92529 90.2197 6.24658C90.2197 5.49463 90.1318 4.79883 89.9561 4.15918C89.7852 3.51465 89.5288 2.95801 89.187 2.48926C88.8452 2.01562 88.418 1.64697 87.9053 1.3833C87.3975 1.11475 86.8042 0.980469 86.1255 0.980469C85.5835 0.980469 85.0879 1.07812 84.6387 1.27344C84.1895 1.46387 83.8013 1.74219 83.4741 2.1084C83.1519 2.47461 82.9004 2.92383 82.7197 3.45605C82.5391 3.98828 82.4487 4.59375 82.4487 5.27246C82.4487 6.01953 82.5342 6.71777 82.7051 7.36719C82.876 8.01172 83.1323 8.5708 83.4741 9.04443C83.8159 9.51807 84.2432 9.8916 84.7559 10.165C85.2686 10.4336 85.8643 10.5679 86.543 10.5679ZM98.2251 0.321289C99.0405 0.321289 99.7925 0.455566 100.481 0.724121C101.174 0.987793 101.772 1.36133 102.275 1.84473C102.778 2.32324 103.171 2.89941 103.455 3.57324C103.738 4.24707 103.879 4.9917 103.879 5.80713C103.879 6.271 103.826 6.72754 103.718 7.17676C103.611 7.62598 103.452 8.05078 103.242 8.45117C103.037 8.85156 102.783 9.22266 102.48 9.56445C102.178 9.90137 101.831 10.1943 101.44 10.4434C101.055 10.6875 100.627 10.8779 100.159 11.0146C99.6899 11.1562 99.1846 11.2271 98.6426 11.2271C97.8271 11.2271 97.0728 11.0977 96.3794 10.8389C95.6909 10.5752 95.0952 10.2041 94.5923 9.72559C94.0894 9.24707 93.6963 8.67334 93.4131 8.00439C93.1299 7.33057 92.9883 6.5835 92.9883 5.76318C92.9883 5.29932 93.042 4.84277 93.1494 4.39355C93.2568 3.94434 93.4131 3.51709 93.6182 3.11182C93.8281 2.70654 94.082 2.33545 94.3799 1.99854C94.6826 1.65674 95.0269 1.36133 95.4126 1.1123C95.8032 0.863281 96.2329 0.67041 96.7017 0.533691C97.1753 0.39209 97.6831 0.321289 98.2251 0.321289ZM98.6426 10.5679C99.1846 10.5679 99.6802 10.4702 100.129 10.2749C100.579 10.0796 100.964 9.79639 101.287 9.42529C101.614 9.0542 101.868 8.60254 102.048 8.07031C102.229 7.5332 102.319 6.92529 102.319 6.24658C102.319 5.49463 102.231 4.79883 102.056 4.15918C101.885 3.51465 101.628 2.95801 101.287 2.48926C100.945 2.01562 100.518 1.64697 100.005 1.3833C99.4971 1.11475 98.9038 0.980469 98.2251 0.980469C97.6831 0.980469 97.1875 1.07812 96.7383 1.27344C96.2891 1.46387 95.9009 1.74219 95.5737 2.1084C95.2515 2.47461 95 2.92383 94.8193 3.45605C94.6387 3.98828 94.5483 4.59375 94.5483 5.27246C94.5483 6.01953 94.6338 6.71777 94.8047 7.36719C94.9756 8.01172 95.2319 8.5708 95.5737 9.04443C95.9155 9.51807 96.3428 9.8916 96.8555 10.165C97.3682 10.4336 97.9639 10.5679 98.6426 10.5679ZM107.139 1.12695C107.129 1.67383 107.119 2.20361 107.109 2.71631C107.104 2.93604 107.1 3.16064 107.095 3.39014C107.095 3.61963 107.092 3.84668 107.087 4.07129C107.087 4.29102 107.085 4.50342 107.08 4.7085C107.08 4.90869 107.08 5.08691 107.08 5.24316C107.08 5.57031 107.083 5.96582 107.087 6.42969C107.092 6.89355 107.097 7.36963 107.102 7.85791C107.112 8.34619 107.124 8.81494 107.139 9.26416C107.153 9.71338 107.17 10.0869 107.19 10.3848C107.258 10.3945 107.349 10.4067 107.461 10.4214C107.578 10.4312 107.7 10.4409 107.827 10.4507C107.954 10.4556 108.079 10.4604 108.201 10.4653C108.323 10.4702 108.425 10.4727 108.508 10.4727C108.85 10.4727 109.199 10.4507 109.556 10.4067C109.917 10.3579 110.264 10.27 110.596 10.1431C110.933 10.0161 111.248 9.84277 111.541 9.62305C111.838 9.39844 112.097 9.11035 112.317 8.75879C112.542 8.40723 112.717 7.98486 112.844 7.4917C112.971 6.99365 113.035 6.40771 113.035 5.73389C113.035 4.98682 112.944 4.32275 112.764 3.7417C112.583 3.15576 112.317 2.6626 111.965 2.26221C111.619 1.86182 111.187 1.55908 110.669 1.354C110.156 1.14404 109.565 1.03906 108.896 1.03906C108.765 1.03906 108.616 1.04395 108.45 1.05371C108.284 1.05859 108.118 1.06592 107.952 1.07568C107.791 1.08057 107.637 1.09033 107.49 1.10498C107.349 1.11475 107.231 1.12207 107.139 1.12695ZM105.535 0.467773C105.647 0.472656 105.752 0.477539 105.85 0.482422C105.933 0.487305 106.018 0.492188 106.106 0.49707C106.194 0.49707 106.265 0.49707 106.318 0.49707C106.411 0.49707 106.565 0.492188 106.78 0.482422C107 0.472656 107.249 0.462891 107.527 0.453125C107.805 0.443359 108.093 0.433594 108.391 0.423828C108.694 0.414062 108.977 0.40918 109.241 0.40918C109.949 0.40918 110.623 0.49707 111.262 0.672852C111.902 0.848633 112.463 1.13672 112.947 1.53711C113.43 1.9375 113.813 2.4624 114.097 3.11182C114.38 3.76123 114.521 4.55957 114.521 5.50684C114.521 6.18555 114.446 6.7959 114.294 7.33789C114.148 7.87988 113.94 8.3584 113.672 8.77344C113.403 9.18848 113.081 9.54492 112.705 9.84277C112.334 10.1357 111.921 10.3774 111.467 10.5679C111.018 10.7583 110.537 10.8975 110.024 10.9854C109.512 11.0732 108.982 11.1172 108.435 11.1172C108.24 11.1172 108.003 11.1099 107.725 11.0952C107.451 11.0854 107.175 11.0732 106.897 11.0586C106.619 11.0439 106.355 11.0293 106.106 11.0146C105.862 11.0049 105.671 11 105.535 11V10.9707C105.564 10.8682 105.591 10.7412 105.615 10.5898C105.645 10.4385 105.669 10.2505 105.688 10.0259C105.708 9.80127 105.723 9.53516 105.732 9.22754C105.742 8.91504 105.747 8.55127 105.747 8.13623V3.36816C105.747 2.95312 105.742 2.58936 105.732 2.27686C105.723 1.95947 105.708 1.68848 105.688 1.46387C105.669 1.23438 105.645 1.0415 105.615 0.885254C105.591 0.729004 105.564 0.599609 105.535 0.49707V0.467773Z" fill="black"/>
</svg>
