<svg width="25" height="25" viewBox="0 0 25 25" fill="none" xmlns="http://www.w3.org/2000/svg">
<g clip-path="url(#clip0_9_2007)">
<path d="M25.0001 24.5687L18.4772 18.0458C20.1716 15.9735 21.0047 13.3292 20.8041 10.6599C20.6036 7.99063 19.3847 5.50053 17.3997 3.70469C15.4147 1.90884 12.8153 0.944656 10.1393 1.01156C7.46336 1.07847 4.91545 2.17135 3.02265 4.06416C1.12985 5.95696 0.0369681 8.50486 -0.02994 11.1809C-0.0968482 13.8568 0.867338 16.4562 2.66318 18.4412C4.45903 20.4262 6.94913 21.6451 9.61843 21.8456C12.2877 22.0462 14.932 21.2131 17.0043 19.5187L23.5272 26.0416L25.0001 24.5687ZM10.4168 19.7916C8.76863 19.7916 7.15746 19.3029 5.78705 18.3872C4.41664 17.4715 3.34854 16.1701 2.71781 14.6473C2.08708 13.1246 1.92205 11.4491 2.24359 9.83256C2.56514 8.21605 3.35881 6.73119 4.52425 5.56575C5.68969 4.40032 7.17455 3.60664 8.79105 3.2851C10.4076 2.96356 12.0831 3.12858 13.6058 3.75931C15.1286 4.39004 16.43 5.45815 17.3457 6.82856C18.2614 8.19897 18.7501 9.81013 18.7501 11.4583C18.7477 13.6677 17.8689 15.7859 16.3066 17.3481C14.7444 18.9104 12.6262 19.7892 10.4168 19.7916Z" fill="black"/>
</g>
<defs>
<clipPath id="clip0_9_2007">
<rect width="25" height="25" fill="white"/>
</clipPath>
</defs>
</svg>
