<svg width="20" height="24" viewBox="0 0 20 24" fill="none" xmlns="http://www.w3.org/2000/svg">
<path d="M14.517 4.99992V5.14992H14.667H17.0003C18.2008 5.14992 19.1837 6.13276 19.1837 7.33325V21.3333C19.1837 22.5337 18.2008 23.5166 17.0003 23.5166H3.00033C1.79983 23.5166 0.816992 22.5337 0.816992 21.3333V7.33325C0.816992 6.13276 1.79983 5.14992 3.00033 5.14992H5.33366H5.48366V4.99992C5.48366 2.50443 7.50483 0.483252 10.0003 0.483252C12.4958 0.483252 14.517 2.50443 14.517 4.99992ZM12.3337 5.14992H12.4837V4.99992C12.4837 3.63374 11.3665 2.51659 10.0003 2.51659C8.63415 2.51659 7.51699 3.63374 7.51699 4.99992V5.14992H7.66699H12.3337ZM17.0003 21.4833H17.1503V21.3333V7.33325V7.18325H17.0003H14.667H14.517V7.33325V9.66659C14.517 10.2254 14.0591 10.6833 13.5003 10.6833C12.9415 10.6833 12.4837 10.2254 12.4837 9.66659V7.33325V7.18325H12.3337H7.66699H7.51699V7.33325V9.66659C7.51699 10.2254 7.05915 10.6833 6.50033 10.6833C5.9415 10.6833 5.48366 10.2254 5.48366 9.66659V7.33325V7.18325H5.33366H3.00033H2.85033V7.33325V21.3333V21.4833H3.00033H17.0003Z" fill="black" stroke="white" stroke-width="0.3"/>
</svg>
