<svg width="16" height="20" viewBox="0 0 16 20" fill="none" xmlns="http://www.w3.org/2000/svg">
<path d="M11.517 4.50004V4.65004H11.667H13.5003C14.4258 4.65004 15.1837 5.40788 15.1837 6.33337V17.3334C15.1837 18.2589 14.4258 19.0167 13.5003 19.0167H2.50033C1.57483 19.0167 0.816992 18.2589 0.816992 17.3334V6.33337C0.816992 5.40788 1.57483 4.65004 2.50033 4.65004H4.33366H4.48366V4.50004C4.48366 2.55705 6.05733 0.983374 8.00033 0.983374C9.94332 0.983374 11.517 2.55705 11.517 4.50004ZM9.83366 4.65004H9.98366V4.50004C9.98366 3.40886 9.0915 2.51671 8.00033 2.51671C6.90915 2.51671 6.01699 3.40886 6.01699 4.50004V4.65004H6.16699H9.83366ZM13.5003 17.4834H13.6503V17.3334V6.33337V6.18337H13.5003H11.667H11.517V6.33337V8.16671C11.517 8.58803 11.1716 8.93337 10.7503 8.93337C10.329 8.93337 9.98366 8.58803 9.98366 8.16671V6.33337V6.18337H9.83366H6.16699H6.01699V6.33337V8.16671C6.01699 8.58803 5.67165 8.93337 5.25033 8.93337C4.829 8.93337 4.48366 8.58803 4.48366 8.16671V6.33337V6.18337H4.33366H2.50033H2.35033V6.33337V17.3334V17.4834H2.50033H13.5003Z" fill="white" stroke="white" stroke-width="0.3"/>
</svg>
