<svg width="19" height="17" viewBox="0 0 19 17" fill="none" xmlns="http://www.w3.org/2000/svg">
<path d="M8.69433 0.894825C8.99368 -0.026486 10.2971 -0.026486 10.5964 0.894825L11.9738 5.13394C12.1077 5.54596 12.4916 5.82492 12.9249 5.82492H17.3821C18.3509 5.82492 18.7536 7.06453 17.9699 7.63394L14.3639 10.2539C14.0134 10.5085 13.8668 10.9599 14.0006 11.3719L15.378 15.611C15.6774 16.5323 14.6229 17.2984 13.8392 16.729L10.2332 14.1091C9.88268 13.8545 9.40808 13.8545 9.0576 14.1091L5.45159 16.729C4.66788 17.2984 3.6134 16.5323 3.91275 15.611L5.29012 11.3719C5.424 10.9599 5.27734 10.5085 4.92685 10.2539L1.32085 7.63394C0.537133 7.06453 0.939909 5.82492 1.90863 5.82492H6.3659C6.79912 5.82492 7.18308 5.54596 7.31695 5.13394L8.69433 0.894825Z" fill="#FBBC64"/>
</svg>
