<svg width="24" height="24" viewBox="0 0 24 24" fill="none" xmlns="http://www.w3.org/2000/svg">
<g clip-path="url(#clip0_9_1974)">
<path d="M22.6184 4.28436C22.2548 4.44561 21.881 4.58171 21.4991 4.69219C21.9513 4.18081 22.2961 3.5791 22.5065 2.92065C22.5537 2.77305 22.5048 2.6115 22.3835 2.51497C22.2623 2.41837 22.094 2.4068 21.9606 2.48586C21.1494 2.96693 20.2743 3.31266 19.3568 3.51482C18.4325 2.61165 17.1771 2.09766 15.8793 2.09766C13.1398 2.09766 10.9111 4.32631 10.9111 7.06568C10.9111 7.28143 10.9248 7.49599 10.9518 7.70756C7.55242 7.40909 4.39208 5.73825 2.22188 3.07615C2.14454 2.98127 2.02539 2.93013 1.9034 2.93991C1.78134 2.94946 1.67168 3.01829 1.61001 3.12408C1.16985 3.87936 0.937152 4.74318 0.937152 5.62209C0.937152 6.81917 1.36455 7.95496 2.11953 8.84246C1.88996 8.76295 1.6672 8.66358 1.45458 8.54556C1.34043 8.48202 1.20113 8.48299 1.08773 8.54802C0.974255 8.61304 0.903109 8.73264 0.900123 8.86336C0.899601 8.88538 0.899601 8.9074 0.899601 8.92973C0.899601 10.7166 1.8613 12.3253 3.33161 13.2021C3.2053 13.1895 3.07906 13.1712 2.95364 13.1473C2.82434 13.1225 2.69138 13.1679 2.60418 13.2665C2.51684 13.365 2.48795 13.5024 2.52818 13.6278C3.07241 15.3269 4.4736 16.5767 6.16751 16.9578C4.76259 17.8377 3.15595 18.2986 1.46936 18.2986C1.11744 18.2986 0.763506 18.2779 0.41711 18.237C0.245031 18.2165 0.0804932 18.3181 0.0218896 18.4818C-0.0367141 18.6455 0.0253983 18.828 0.171795 18.9218C2.33849 20.3111 4.84381 21.0454 7.41677 21.0454C12.4749 21.0454 15.6391 18.6602 17.4028 16.6592C19.6022 14.1642 20.8635 10.8617 20.8635 7.59864C20.8635 7.46232 20.8614 7.32466 20.8572 7.18744C21.7249 6.53369 22.472 5.74251 23.0799 4.83314C23.1723 4.69503 23.1623 4.5125 23.0553 4.38537C22.9485 4.25815 22.7704 4.21702 22.6184 4.28436Z" fill="white"/>
</g>
<defs>
<clipPath id="clip0_9_1974">
<rect width="23.1429" height="23.1429" fill="white"/>
</clipPath>
</defs>
</svg>
