<svg width="31" height="31" viewBox="0 0 31 31" fill="none" xmlns="http://www.w3.org/2000/svg">
<g clip-path="url(#clip0_9_2006)">
<path d="M15.3474 6.70425L15.4997 6.88306L15.6519 6.70425C17.0231 5.09404 19.1252 4.075 21.3122 4.075C25.1801 4.075 28.2163 7.11129 28.2163 10.9792C28.2163 13.3547 27.1498 15.5259 25.2342 17.8679C23.3174 20.2114 20.5714 22.7015 17.2438 25.7189L17.2382 25.7239L17.238 25.7242L15.4992 27.3071L13.7613 25.737L13.7608 25.7366L13.7207 25.7001C10.4089 22.6905 7.67535 20.2065 5.7652 17.8696C3.84957 15.5259 2.78301 13.3547 2.78301 10.9792C2.78301 7.11129 5.8193 4.075 9.68717 4.075C11.8741 4.075 13.9762 5.09404 15.3474 6.70425ZM7.81085 16.912C9.60278 19.0059 12.1636 21.3265 15.2326 24.1053L15.3583 24.231L15.4997 24.3724L15.6411 24.231L15.7668 24.1053C18.8358 21.3265 21.3966 19.0059 23.1885 16.912C24.9792 14.8196 26.033 12.9194 26.033 10.9792C26.033 8.28538 24.006 6.25833 21.3122 6.25833C19.2945 6.25833 17.3244 7.52153 16.5783 9.30667H14.4331C13.6752 7.52217 11.7055 6.25833 9.68717 6.25833C6.99338 6.25833 4.96634 8.28538 4.96634 10.9792C4.96634 12.9194 6.02015 14.8196 7.81085 16.912Z" fill="black" stroke="white" stroke-width="0.4"/>
</g>
<defs>
<clipPath id="clip0_9_2006">
<rect width="31" height="31" fill="white"/>
</clipPath>
</defs>
</svg>
